<?xml version="1.0" standalone="no"?>
<!DOCTYPE svg PUBLIC "-//W3C//DTD SVG 20010904//EN"
 "http://www.w3.org/TR/2001/REC-SVG-20010904/DTD/svg10.dtd">
<svg version="1.0" xmlns="http://www.w3.org/2000/svg"
 width="348.000000pt" height="345.000000pt" viewBox="0 0 348.000000 345.000000"
 preserveAspectRatio="xMidYMid meet">

<g transform="translate(0.000000,345.000000) scale(0.100000,-0.100000)"
fill="#000000" stroke="none">
<path d="M0 3205 l0 -245 175 0 175 0 6 -27 c3 -16 9 -41 14 -58 4 -16 13 -55
19 -85 23 -110 71 -331 132 -610 12 -52 25 -113 29 -135 27 -137 146 -694 161
-749 42 -156 169 -307 299 -357 48 -18 90 -19 1080 -19 l1030 0 0 244 0 244
-946 1 c-603 1 -952 5 -964 11 -11 6 -21 26 -25 50 -4 22 -11 40 -16 40 -10 0
-12 60 -3 84 6 14 93 16 888 16 613 0 893 3 921 11 43 12 105 70 105 98 0 9 4
21 9 27 9 8 77 198 105 289 7 22 18 54 25 70 7 17 15 43 18 58 3 15 14 45 24
65 11 20 19 44 19 53 0 9 7 30 15 45 8 16 18 46 21 67 4 20 10 37 14 37 9 0
30 70 30 99 0 11 4 21 9 21 4 0 14 21 21 48 7 26 16 52 20 57 4 6 22 56 40
112 26 83 31 112 25 148 -3 26 -13 49 -21 52 -8 3 -14 13 -14 22 0 21 -45 62
-93 85 -37 17 -106 18 -1245 17 -664 0 -1219 2 -1234 5 -23 5 -28 11 -28 34 0
44 -20 130 -31 130 -5 0 -9 26 -9 58 0 31 -3 74 -6 95 l-7 37 -393 0 -394 0 0
-245z m664 53 c8 -29 25 -108 38 -175 l23 -123 1275 -2 c1211 -3 1277 -4 1303
-21 52 -34 54 -25 -81 -412 -44 -126 -121 -349 -171 -495 -51 -145 -97 -268
-104 -272 -7 -4 -450 -8 -986 -8 l-973 0 6 -31 c3 -17 15 -90 26 -162 29 -189
41 -237 66 -266 l22 -26 940 -3 941 -2 3 -95 c2 -53 2 -99 1 -103 -2 -4 -434
-6 -960 -5 l-956 2 -56 27 c-31 15 -60 33 -64 41 -4 7 -15 13 -22 13 -8 0 -15
7 -15 15 0 8 -8 23 -18 33 -9 9 -23 36 -30 60 -7 23 -17 42 -22 42 -6 0 -10
16 -10 35 0 48 -20 135 -31 135 -5 0 -9 19 -9 43 0 56 -20 157 -31 157 -5 0
-9 17 -9 38 0 52 -21 152 -31 152 -5 0 -9 20 -9 45 0 56 -19 145 -31 145 -5 0
-9 19 -9 41 0 56 -21 169 -32 169 -4 0 -8 17 -8 37 0 49 -22 153 -32 153 -4 0
-8 19 -8 43 -1 54 -16 121 -29 125 -6 2 -11 26 -11 52 0 60 -18 150 -31 150
-5 0 -9 22 -9 48 0 60 -20 162 -31 162 -5 0 -9 17 -9 38 l0 37 -137 -3 c-75
-2 -151 -1 -170 3 l-33 6 0 98 c0 54 3 101 7 104 3 4 118 7 254 7 l248 0 15
-52z"/>
<path d="M2125 2440 c-165 -165 -305 -300 -311 -300 -6 0 -70 59 -141 130 -72
72 -135 130 -141 130 -5 0 -12 10 -16 23 -5 21 -9 19 -58 -31 l-52 -53 202
-202 202 -202 357 357 357 358 -46 45 c-26 25 -48 45 -50 45 -2 0 -138 -135
-303 -300z"/>
<path d="M1115 709 c-110 -43 -186 -123 -224 -237 -27 -79 -27 -146 0 -219 31
-82 69 -134 131 -176 139 -94 319 -84 443 24 47 41 95 115 95 145 0 12 6 24
13 26 8 3 12 31 12 93 0 62 -4 90 -12 92 -7 3 -13 20 -13 39 0 21 -8 42 -20
54 -11 11 -20 24 -20 29 0 15 -53 71 -67 71 -7 0 -13 3 -13 8 0 10 -53 38
-109 57 -60 21 -155 18 -216 -6z m200 -138 c134 -61 177 -239 85 -345 -42 -47
-121 -79 -181 -74 -85 8 -166 65 -190 133 -7 19 -17 35 -21 35 -16 0 -7 77 13
121 35 72 56 96 111 123 62 31 125 34 183 7z"/>
<path d="M2483 707 c-161 -58 -243 -176 -243 -351 0 -72 4 -91 30 -143 77
-154 251 -233 416 -188 72 19 178 89 189 124 3 12 10 21 14 21 10 0 31 46 31
70 0 10 6 20 13 22 8 3 13 34 15 95 3 72 1 93 -12 106 -9 8 -16 29 -16 46 0
20 -7 35 -20 43 -11 7 -20 20 -20 28 0 9 -18 32 -40 53 -96 88 -237 118 -357
74z m208 -145 c93 -48 145 -155 120 -245 -26 -90 -122 -167 -211 -167 -51 0
-138 39 -170 76 -73 83 -73 207 -1 287 72 80 168 98 262 49z"/>
</g>
</svg>
